<?xml version="1.0" encoding="UTF-8"?>
<svg id="Layer_1" xmlns="http://www.w3.org/2000/svg" xmlns:xlink="http://www.w3.org/1999/xlink" version="1.1" viewBox="0 0 72 72">
  <!-- Generator: Adobe Illustrator 30.0.0, SVG Export Plug-In . SVG Version: 2.1.1 Build 123)  -->
  <defs>
    <style>
      .st0 {
        fill: #fff;
      }

      .st0, .st1 {
        fill-rule: evenodd;
      }

      .st1 {
        fill: url(#linear-gradient);
      }
    </style>
    <linearGradient id="linear-gradient" x1="36" y1="-492.5" x2="36" y2="-435.7" gradientTransform="translate(0 -428.1) scale(1 -1)" gradientUnits="userSpaceOnUse">
      <stop offset="0" stop-color="#20b038"/>
      <stop offset="1" stop-color="#60d66a"/>
    </linearGradient>
  </defs>
  <path class="st1" d="M54.9,64.4H17.1c-5.2,0-9.4-4.2-9.4-9.4V17.1c0-5.2,4.2-9.4,9.4-9.4h37.9c5.2,0,9.4,4.2,9.4,9.4v37.9c0,5.2-4.2,9.4-9.4,9.4Z"/>
  <path class="st0" d="M55.3,35.5c0,10.4-8.5,18.8-19,18.8s-6.5-.9-9.2-2.3l-10.5,3.3,3.4-10.1c-1.7-2.8-2.7-6.2-2.7-9.7,0-10.4,8.5-18.8,19-18.8s19,8.4,19,18.8h0ZM36.4,19.7c-8.8,0-16,7.1-16,15.8s1.1,6.7,3,9.3l-2,5.9,6.1-1.9c2.5,1.7,5.5,2.6,8.8,2.6,8.8,0,16-7.1,16-15.8,0-8.7-7.2-15.8-16-15.8h0ZM45.9,39.8c-.1-.2-.4-.3-.9-.5-.5-.2-2.8-1.3-3.2-1.5-.4-.2-.7-.2-1,.2-.3.5-1.2,1.5-1.5,1.8-.3.3-.5.3-1,.1-.5-.2-2-.7-3.7-2.3-1.4-1.2-2.3-2.7-2.6-3.2-.3-.5,0-.7.2-.9.2-.2.5-.5.7-.8.2-.3.3-.5.5-.8.2-.3,0-.6,0-.8-.1-.2-1-2.5-1.4-3.4-.4-.9-.8-.9-1-.9s-.8,0-.8,0c0,0-.9.1-1.4.6-.4.5-1.6,1.6-1.6,3.9s1.7,4.5,1.9,4.8c.2.3,3.2,5.1,8,7,4.7,1.8,4.7,1.2,5.6,1.2.9,0,2.8-1.1,3.1-2.2.4-1.1.4-2,.3-2.2h0Z"/>
</svg>