<?xml version="1.0" encoding="UTF-8"?>
<svg id="Layer_1" xmlns="http://www.w3.org/2000/svg" version="1.1" viewBox="0 0 200 200">
  <!-- Generator: Adobe Illustrator 30.2.1, SVG Export Plug-In . SVG Version: 2.1.1 Build 1)  -->
  <defs>
    <style>
      .st0 {
        fill: #0d1b21;
      }

      .st1 {
        fill: #fff;
      }
    </style>
  </defs>
  <rect class="st0" x="38.48" y="13.55" width="123.04" height="123.06" rx="17.15" ry="17.15"/>
  <rect class="st1" x="47.06" y="22.13" width="105.89" height="105.89" rx="8.58" ry="8.58"/>
  <path class="st0" d="M161.52,167.14c0-9.43-7.72-17.15-17.15-17.15h-29.09l-15.28-4.8-15.28,4.8h-29.09c-9.43,0-17.15,7.72-17.15,17.15v2.16c0,9.43,7.72,17.15,17.15,17.15h88.73c9.43,0,17.15-7.72,17.15-17.15v-2.16Z"/>
  <path class="st1" d="M59.75,177.48c3.52,0,5.43-1.98,5.43-5.02,0-2.57-.77-4.17-3.94-5.69-2.42-1.16-3.11-1.57-3.11-2.96,0-1.11.64-1.83,1.75-1.83,1.26,0,1.78.82,1.78,1.96v.49h3.4v-.51c0-2.98-1.72-4.97-5.2-4.97s-5.33,1.98-5.33,4.91c0,2.52.9,4.06,3.99,5.56,2.44,1.18,3.06,1.57,3.06,3.11,0,1.21-.75,1.9-1.88,1.9-1.29,0-1.85-.8-1.85-1.9v-.8h-3.4v.8c0,2.96,1.78,4.94,5.3,4.94Z"/>
  <path class="st1" d="M72.43,177.48c3.4,0,5.27-1.85,5.27-5.2v-1.83h-3.4v1.96c0,1.31-.64,2.03-1.8,2.03s-1.78-.72-1.78-2.03v-8.39c0-1.31.64-2.03,1.78-2.03s1.8.72,1.8,2.03v1.44h3.4v-1.31c0-3.34-1.88-5.2-5.27-5.2s-5.3,1.85-5.3,5.2v8.13c0,3.34,1.9,5.2,5.3,5.2Z"/>
  <path class="st1" d="M87.64,177.22h3.68l-3.73-18.01h-4.86l-3.73,18.01h3.42l.59-3.27h4.04l.59,3.27ZM83.57,170.87l1.44-8.05,1.47,8.05h-2.91Z"/>
  <path class="st1" d="M93.25,177.22h3.22v-12.81l4.43,12.81h3.63v-18.01h-3.22v10.42l-3.6-10.42h-4.45v18.01Z"/>
  <path class="st1" d="M111.98,177.22h3.14v-13.4l2.68,13.4h3.01l2.68-13.4v13.4h3.4v-18.01h-5.07l-2.37,12.55-2.39-12.55h-5.07v18.01Z"/>
  <path class="st1" d="M129.7,177.22h9.8v-3.14h-6.2v-4.43h4.94v-3.14h-4.94v-4.17h6.2v-3.14h-9.8v18.01Z"/>
  <path class="st1" d="M142.41,172.23h2.68l.46-6.38v-6.64h-3.6v6.64l.46,6.38ZM141.95,177.22h3.6v-3.06h-3.6v3.06Z"/>
</svg>