<?xml version="1.0" encoding="UTF-8"?>
<svg id="Layer_1" xmlns="http://www.w3.org/2000/svg" version="1.1" viewBox="0 0 200 200">
  <!-- Generator: Adobe Illustrator 30.2.1, SVG Export Plug-In . SVG Version: 2.1.1 Build 1)  -->
  <defs>
    <style>
      .st0 {
        fill: #0d1b21;
      }

      .st1 {
        fill: #fff;
      }
    </style>
  </defs>
  <rect class="st0" x="25" y="2.04" width="150" height="195.92" rx="13.03" ry="13.03"/>
  <path class="st1" d="M31.52,139.01c0,3.59,2.92,6.52,6.52,6.52h27.4s34.57,9.5,34.57,9.5l34.57-9.5h27.4c3.59,0,6.52-2.92,6.52-6.52V15.07c0-3.59-2.92-6.52-6.52-6.52H38.03c-3.59,0-6.52,2.92-6.52,6.52v123.94Z"/>
  <path class="st1" d="M50.3,185.07c3.5,0,5.4-1.97,5.4-4.99,0-2.56-.77-4.14-3.91-5.65-2.4-1.15-3.09-1.56-3.09-2.94,0-1.1.64-1.82,1.74-1.82,1.25,0,1.76.82,1.76,1.94v.49h3.38v-.51c0-2.97-1.71-4.94-5.17-4.94s-5.29,1.97-5.29,4.88c0,2.51.9,4.04,3.96,5.52,2.43,1.18,3.04,1.56,3.04,3.09,0,1.2-.74,1.89-1.87,1.89-1.28,0-1.84-.79-1.84-1.89v-.79h-3.38v.79c0,2.94,1.76,4.91,5.27,4.91Z"/>
  <path class="st1" d="M62.9,185.07c3.38,0,5.24-1.84,5.24-5.17v-1.82h-3.38v1.94c0,1.3-.64,2.02-1.79,2.02s-1.76-.72-1.76-2.02v-8.34c0-1.3.64-2.02,1.76-2.02s1.79.72,1.79,2.02v1.43h3.38v-1.3c0-3.32-1.87-5.17-5.24-5.17s-5.27,1.84-5.27,5.17v8.08c0,3.32,1.89,5.17,5.27,5.17Z"/>
  <path class="st1" d="M78.02,184.82h3.66l-3.71-17.9h-4.83l-3.71,17.9h3.4s.59-3.25.59-3.25h4.02l.59,3.25ZM73.98,178.5l1.43-8,1.46,8h-2.89Z"/>
  <path class="st1" d="M83.59,184.82h3.2v-12.74s4.4,12.74,4.4,12.74h3.61v-17.9h-3.2v10.36l-3.58-10.36h-4.42v17.9Z"/>
  <path class="st1" d="M113.57,177.22v-2.99h-5.75c-1.79,0-2.38-.87-2.38-2.12v-.59c0-1.28.72-1.89,1.94-1.89s1.87.59,1.87,1.74v.59h3.32v-.2c0-3.3-1.82-5.09-5.32-5.09s-5.35,1.79-5.35,4.81v.49c0,1.43.61,2.97,2.56,3.58v.08c-1.92.64-2.63,2.15-2.63,4.17v.95c0,3.09,1.56,4.35,3.99,4.35,1.66,0,2.99-.72,3.68-1.94.05.87.18,1.61.33,1.69h3.2c-.31-.95-.46-2.07-.46-4.02v-3.58h1ZM109.12,180.08c0,1.56-.95,2.02-2.07,2.02s-1.76-.64-1.76-1.79v-.82c0-1.59.74-2.28,2.43-2.28h1.41v2.86Z"/>
  <path class="st1" d="M120.32,184.82h3.58v-6.93h1.69c3.61,0,5.32-1.59,5.32-4.96v-1.07c0-3.35-1.71-4.94-5.32-4.94h-5.27v17.9ZM123.9,174.76v-4.73h1.69c1.23,0,1.74.54,1.74,1.82v1.07c0,1.3-.51,1.84-1.74,1.84h-1.69Z"/>
  <path class="st1" d="M139.65,184.82h3.66l-3.71-17.9h-4.83l-3.71,17.9h3.4l.59-3.25h4.02l.59,3.25ZM135.61,178.5l1.43-8,1.46,8h-2.89Z"/>
  <path class="st1" d="M147.07,184.82h3.58v-7.39l4.32-10.51h-3.53l-2.43,6.37-2.4-6.37h-3.86l4.32,10.51v7.39Z"/>
</svg>