<?xml version="1.0" encoding="UTF-8"?>
<svg id="Layer_1" xmlns="http://www.w3.org/2000/svg" version="1.1" viewBox="0 0 200 200">
  <!-- Generator: Adobe Illustrator 30.2.1, SVG Export Plug-In . SVG Version: 2.1.1 Build 1)  -->
  <defs>
    <style>
      .st0 {
        fill: #0d1b21;
      }

      .st1 {
        fill: #fff;
      }
    </style>
  </defs>
  <rect class="st0" x="50.47" y="14.38" width="99.06" height="99.06" rx="9.93" ry="9.93"/>
  <rect class="st1" x="55.43" y="19.34" width="89.14" height="89.14" rx="4.96" ry="4.96"/>
  <path class="st0" d="M60.4,185.62h79.21c5.46,0,9.93-4.47,9.93-9.93v-28c0-5.46-4.47-9.93-9.93-9.93h-12.25l-27.35-19.36-27.35,19.36h-12.25c-5.46,0-9.93,4.47-9.93,9.93v28c0,5.46,4.47,9.93,9.93,9.93Z"/>
  <path class="st1" d="M66.08,170.13c3.21,0,4.95-1.8,4.95-4.57,0-2.34-.7-3.8-3.59-5.18-2.2-1.05-2.84-1.43-2.84-2.7,0-1.01.59-1.66,1.59-1.66,1.15,0,1.62.75,1.62,1.78v.45h3.09v-.47c0-2.72-1.57-4.52-4.73-4.52s-4.85,1.8-4.85,4.48c0,2.3.82,3.7,3.63,5.06,2.23,1.08,2.79,1.43,2.79,2.84,0,1.1-.68,1.73-1.71,1.73-1.17,0-1.69-.73-1.69-1.73v-.73h-3.09v.73c0,2.7,1.62,4.5,4.83,4.5Z"/>
  <path class="st1" d="M77.64,170.13c3.09,0,4.81-1.69,4.81-4.73v-1.66h-3.09v1.78c0,1.2-.59,1.85-1.64,1.85s-1.62-.66-1.62-1.85v-7.64c0-1.2.59-1.85,1.62-1.85s1.64.66,1.64,1.85v1.31h3.09v-1.2c0-3.05-1.71-4.73-4.81-4.73s-4.83,1.69-4.83,4.73v7.41c0,3.05,1.73,4.73,4.83,4.73Z"/>
  <path class="st1" d="M91.49,169.9h3.35l-3.4-16.41h-4.43l-3.4,16.41h3.12l.54-2.98h3.68l.54,2.98ZM87.79,164.11l1.31-7.34,1.34,7.34h-2.65Z"/>
  <path class="st1" d="M96.6,169.9h2.93v-11.67l4.03,11.67h3.3v-16.41h-2.93v9.49l-3.28-9.49h-4.06v16.41Z"/>
  <path class="st1" d="M113.67,169.9h2.86v-12.21l2.44,12.21h2.74l2.44-12.21v12.21h3.09v-16.41h-4.62l-2.16,11.44-2.18-11.44h-4.62v16.41Z"/>
  <path class="st1" d="M129.81,169.9h8.93v-2.86h-5.65v-4.03h4.5v-2.86h-4.5v-3.8s5.65,0,5.65,0v-2.86h-8.93v16.41Z"/>
</svg>