<?xml version="1.0" encoding="UTF-8"?>
<svg id="Layer_1" xmlns="http://www.w3.org/2000/svg" version="1.1" viewBox="0 0 200 200">
  <!-- Generator: Adobe Illustrator 30.2.1, SVG Export Plug-In . SVG Version: 2.1.1 Build 1)  -->
  <defs>
    <style>
      .st0 {
        fill: #0d1b21;
      }

      .st1 {
        fill: #fff;
      }
    </style>
  </defs>
  <rect class="st0" x="49.84" y="6.53" width="100.33" height="100.33" rx="15.63" ry="15.63"/>
  <path class="st1" d="M65.47,14.35h69.07c4.31,0,7.82,3.5,7.82,7.82v69.07c0,4.31-3.5,7.82-7.82,7.82h-69.07c-4.31,0-7.82-3.5-7.82-7.82V22.16c0-4.31,3.5-7.82,7.82-7.82Z"/>
  <path class="st0" d="M134.53,130.45h-10.78l-23.75-15.77-23.75,15.77h-10.78c-8.6,0-15.63,7.03-15.63,15.63v31.76c0,8.6,7.03,15.63,15.63,15.63h69.07c8.63,0,15.63-7,15.63-15.63v-31.76c0-8.63-7-15.63-15.63-15.63Z"/>
  <path class="st1" d="M75.04,173.67c4.46,0,6.87-2.51,6.87-6.34,0-3.25-.98-5.27-4.98-7.19-3.06-1.46-3.94-1.98-3.94-3.74,0-1.4.81-2.31,2.21-2.31,1.59,0,2.25,1.04,2.25,2.47v.62h4.29v-.65c0-3.77-2.18-6.28-6.57-6.28s-6.74,2.51-6.74,6.21c0,3.19,1.14,5.14,5.04,7.03,3.09,1.5,3.87,1.98,3.87,3.94,0,1.53-.94,2.41-2.38,2.41-1.63,0-2.34-1.01-2.34-2.41v-1.01h-4.29v1.01c0,3.74,2.24,6.25,6.7,6.25Z"/>
  <path class="st1" d="M91.08,173.67c4.3,0,6.67-2.34,6.67-6.57v-2.31h-4.29v2.47c0,1.66-.81,2.57-2.28,2.57s-2.24-.91-2.24-2.57v-10.61c0-1.66.81-2.57,2.24-2.57s2.28.91,2.28,2.57v1.82h4.29v-1.66c0-4.23-2.38-6.57-6.67-6.57s-6.7,2.34-6.7,6.57v10.28c0,4.23,2.41,6.57,6.7,6.57Z"/>
  <path class="st1" d="M110.31,173.35h4.65l-4.72-22.78h-6.15l-4.72,22.78h4.33l.75-4.13h5.11l.75,4.13ZM105.17,165.31l1.82-10.18,1.85,10.18h-3.68Z"/>
  <path class="st1" d="M117.41,173.35h4.07v-16.2l5.6,16.2h4.59v-22.78h-4.07v13.18l-4.56-13.18h-5.63v22.78Z"/>
  <rect class="st0" x="49.84" y="6.53" width="100.33" height="100.33" rx="15.63" ry="15.63"/>
  <path class="st1" d="M65.47,14.35h69.07c4.31,0,7.82,3.5,7.82,7.82v69.07c0,4.31-3.5,7.82-7.82,7.82h-69.07c-4.31,0-7.82-3.5-7.82-7.82V22.16c0-4.31,3.5-7.82,7.82-7.82Z"/>
  <path class="st0" d="M134.53,130.45h-10.78l-23.75-15.77-23.75,15.77h-10.78c-8.6,0-15.63,7.03-15.63,15.63v31.76c0,8.6,7.03,15.63,15.63,15.63h69.07c8.63,0,15.63-7,15.63-15.63v-31.76c0-8.63-7-15.63-15.63-15.63Z"/>
  <path class="st1" d="M75.04,173.67c4.46,0,6.87-2.51,6.87-6.34,0-3.25-.98-5.27-4.98-7.19-3.06-1.46-3.94-1.98-3.94-3.74,0-1.4.81-2.31,2.21-2.31,1.59,0,2.25,1.04,2.25,2.47v.62h4.29v-.65c0-3.77-2.18-6.28-6.57-6.28s-6.74,2.51-6.74,6.21c0,3.19,1.14,5.14,5.04,7.03,3.09,1.5,3.87,1.98,3.87,3.94,0,1.53-.94,2.41-2.38,2.41-1.63,0-2.34-1.01-2.34-2.41v-1.01h-4.29v1.01c0,3.74,2.24,6.25,6.7,6.25Z"/>
  <path class="st1" d="M91.08,173.67c4.3,0,6.67-2.34,6.67-6.57v-2.31h-4.29v2.47c0,1.66-.81,2.57-2.28,2.57s-2.24-.91-2.24-2.57v-10.61c0-1.66.81-2.57,2.24-2.57s2.28.91,2.28,2.57v1.82h4.29v-1.66c0-4.23-2.38-6.57-6.67-6.57s-6.7,2.34-6.7,6.57v10.28c0,4.23,2.41,6.57,6.7,6.57Z"/>
  <path class="st1" d="M110.31,173.35h4.65l-4.72-22.78h-6.15l-4.72,22.78h4.33l.75-4.13h5.11l.75,4.13ZM105.17,165.31l1.82-10.18,1.85,10.18h-3.68Z"/>
  <path class="st1" d="M117.41,173.35h4.07v-16.2l5.6,16.2h4.59v-22.78h-4.07v13.18l-4.56-13.18h-5.63v22.78Z"/>
</svg>