<?xml version="1.0" encoding="UTF-8"?>
<svg id="Layer_1" xmlns="http://www.w3.org/2000/svg" version="1.1" viewBox="0 0 200 200">
  <!-- Generator: Adobe Illustrator 30.2.1, SVG Export Plug-In . SVG Version: 2.1.1 Build 1)  -->
  <defs>
    <style>
      .st0 {
        fill: #0d1b21;
      }

      .st1 {
        fill: #fff;
      }
    </style>
  </defs>
  <rect class="st0" x="25" y="2.04" width="150" height="195.92" rx="13.03" ry="13.03"/>
  <rect class="st1" x="31.52" y="54.47" width="136.97" height="136.97" rx="6.52" ry="6.52"/>
  <path class="st1" d="M54.69,39.14c3.97,0,6.11-2.23,6.11-5.65,0-2.9-.87-4.69-4.43-6.4-2.72-1.3-3.5-1.77-3.5-3.33,0-1.25.72-2.06,1.97-2.06,1.42,0,2,.93,2,2.2v.55h3.82v-.58c0-3.36-1.94-5.59-5.85-5.59s-5.99,2.23-5.99,5.53c0,2.84,1.01,4.58,4.49,6.26,2.75,1.33,3.45,1.77,3.45,3.5,0,1.36-.84,2.14-2.11,2.14-1.45,0-2.09-.9-2.09-2.14v-.9h-3.82v.9c0,3.33,2,5.56,5.97,5.56Z"/>
  <path class="st1" d="M68.97,39.14c3.82,0,5.94-2.09,5.94-5.85v-2.06h-3.82v2.2c0,1.48-.72,2.29-2.03,2.29s-2-.81-2-2.29v-9.44c0-1.48.72-2.29,2-2.29s2.03.81,2.03,2.29v1.62h3.82v-1.48c0-3.76-2.11-5.85-5.94-5.85-3.82,0-5.97,2.09-5.97,5.85v9.15c0,3.76,2.14,5.85,5.97,5.85Z"/>
  <path class="st1" d="M86.09,38.85h4.14l-4.2-20.27h-5.47l-4.2,20.27h3.85l.67-3.68h4.55l.67,3.68ZM81.51,31.7l1.62-9.06,1.65,9.06h-3.27Z"/>
  <path class="st1" d="M92.4,38.85h3.62v-14.42l4.98,14.42h4.08v-20.27h-3.62v11.73l-4.05-11.73h-5.01v20.27Z"/>
  <path class="st1" d="M113.48,38.85h3.53v-15.09s3.01,15.09,3.01,15.09h3.39l3.01-15.09v15.09h3.82v-20.27h-5.7l-2.66,14.13-2.69-14.13h-5.7v20.27Z"/>
  <path class="st1" d="M133.43,38.85h11.03v-3.53h-6.98v-4.98h5.56v-3.53h-5.56v-4.69h6.98v-3.53h-11.03v20.27Z"/>
  <path class="st1" d="M147.74,33.24h3.01l.52-7.18v-7.47h-4.05v7.47l.52,7.18ZM147.22,38.85h4.05v-3.45h-4.05v3.45Z"/>
</svg>