<?xml version="1.0" encoding="UTF-8"?>
<svg id="Layer_1" xmlns="http://www.w3.org/2000/svg" version="1.1" viewBox="0 0 200 200">
  <!-- Generator: Adobe Illustrator 30.2.1, SVG Export Plug-In . SVG Version: 2.1.1 Build 1)  -->
  <defs>
    <style>
      .st0 {
        fill: #0d1b21;
      }

      .st1 {
        fill: #fff;
      }
    </style>
  </defs>
  <rect class="st0" x="25" y="3.97" width="150" height="192.05" rx="16.06" ry="16.06"/>
  <path class="st1" d="M57.4,180.38c4.03,0,6.21-2.27,6.21-5.74,0-2.94-.88-4.77-4.5-6.51-2.77-1.32-3.56-1.8-3.56-3.39,0-1.27.74-2.09,2-2.09,1.44,0,2.03.94,2.03,2.24v.56h3.89v-.59c0-3.42-1.97-5.68-5.95-5.68s-6.09,2.27-6.09,5.62c0,2.89,1.03,4.65,4.56,6.36,2.8,1.35,3.5,1.8,3.5,3.56,0,1.38-.85,2.18-2.15,2.18-1.47,0-2.12-.91-2.12-2.18v-.91h-3.89v.91c0,3.39,2.03,5.65,6.06,5.65Z"/>
  <path class="st1" d="M71.91,180.38c3.89,0,6.04-2.12,6.04-5.95v-2.09h-3.89v2.24c0,1.5-.74,2.33-2.06,2.33s-2.03-.82-2.03-2.33v-9.6c0-1.5.74-2.33,2.03-2.33s2.06.82,2.06,2.33v1.65h3.89v-1.5c0-3.83-2.15-5.95-6.04-5.95s-6.06,2.12-6.06,5.95v9.3c0,3.83,2.18,5.95,6.06,5.95Z"/>
  <path class="st1" d="M89.31,180.08h4.21l-4.27-20.61h-5.56l-4.27,20.61h3.92l.68-3.74h4.62l.68,3.74ZM84.66,172.81l1.65-9.22,1.68,9.22h-3.33Z"/>
  <path class="st1" d="M95.73,180.08h3.68v-14.66l5.06,14.66h4.15v-20.61h-3.68v11.92l-4.12-11.92h-5.09v20.61Z"/>
  <path class="st1" d="M117.16,180.08h3.59v-15.34l3.06,15.34h3.44l3.06-15.34v15.34h3.89v-20.61h-5.8l-2.71,14.37-2.74-14.37h-5.8v20.61Z"/>
  <path class="st1" d="M137.45,180.08h11.22v-3.59h-7.1v-5.06h5.65v-3.59h-5.65v-4.77h7.1v-3.59h-11.22v20.61Z"/>
  <path class="st1" d="M158.94,12H41.06c-4.43,0-8.03,3.6-8.03,8.03v117.88c0,4.43,3.6,8.03,8.03,8.03h39.02l19.92-7.68,19.92,7.68h39.02c4.43,0,8.03-3.6,8.03-8.03V20.03c0-4.43-3.6-8.03-8.03-8.03Z"/>
  <rect class="st0" x="25" y="3.97" width="150" height="192.05" rx="16.06" ry="16.06"/>
  <path class="st1" d="M57.4,180.38c4.03,0,6.21-2.27,6.21-5.74,0-2.94-.88-4.77-4.5-6.51-2.77-1.32-3.56-1.8-3.56-3.39,0-1.27.74-2.09,2-2.09,1.44,0,2.03.94,2.03,2.24v.56h3.89v-.59c0-3.42-1.97-5.68-5.95-5.68s-6.09,2.27-6.09,5.62c0,2.89,1.03,4.65,4.56,6.36,2.8,1.35,3.5,1.8,3.5,3.56,0,1.38-.85,2.18-2.15,2.18-1.47,0-2.12-.91-2.12-2.18v-.91h-3.89v.91c0,3.39,2.03,5.65,6.06,5.65Z"/>
  <path class="st1" d="M71.91,180.38c3.89,0,6.04-2.12,6.04-5.95v-2.09h-3.89v2.24c0,1.5-.74,2.33-2.06,2.33s-2.03-.82-2.03-2.33v-9.6c0-1.5.74-2.33,2.03-2.33s2.06.82,2.06,2.33v1.65h3.89v-1.5c0-3.83-2.15-5.95-6.04-5.95s-6.06,2.12-6.06,5.95v9.3c0,3.83,2.18,5.95,6.06,5.95Z"/>
  <path class="st1" d="M89.31,180.08h4.21l-4.27-20.61h-5.56l-4.27,20.61h3.92l.68-3.74h4.62l.68,3.74ZM84.66,172.81l1.65-9.22,1.68,9.22h-3.33Z"/>
  <path class="st1" d="M95.73,180.08h3.68v-14.66l5.06,14.66h4.15v-20.61h-3.68v11.92l-4.12-11.92h-5.09v20.61Z"/>
  <path class="st1" d="M117.16,180.08h3.59v-15.34l3.06,15.34h3.44l3.06-15.34v15.34h3.89v-20.61h-5.8l-2.71,14.37-2.74-14.37h-5.8v20.61Z"/>
  <path class="st1" d="M137.45,180.08h11.22v-3.59h-7.1v-5.06h5.65v-3.59h-5.65v-4.77h7.1v-3.59h-11.22v20.61Z"/>
  <path class="st1" d="M158.94,12H41.06c-4.43,0-8.03,3.6-8.03,8.03v117.88c0,4.43,3.6,8.03,8.03,8.03h39.02l19.92-7.68,19.92,7.68h39.02c4.43,0,8.03-3.6,8.03-8.03V20.03c0-4.43-3.6-8.03-8.03-8.03Z"/>
</svg>