<?xml version="1.0" encoding="UTF-8"?>
<svg id="Layer_1" xmlns="http://www.w3.org/2000/svg" version="1.1" viewBox="0 0 200 200">
  <!-- Generator: Adobe Illustrator 30.2.1, SVG Export Plug-In . SVG Version: 2.1.1 Build 1)  -->
  <defs>
    <style>
      .st0 {
        fill: #0d1b21;
      }

      .st1 {
        fill: #fff;
      }
    </style>
  </defs>
  <rect class="st0" x="25" y="62.63" width="150" height="74.74" rx="8.7" ry="8.7"/>
  <path class="st1" d="M44.08,92.69c3.32,0,5.12-1.87,5.12-4.73,0-2.43-.73-3.93-3.71-5.36-2.28-1.09-2.94-1.48-2.94-2.79,0-1.04.61-1.72,1.65-1.72,1.19,0,1.67.78,1.67,1.84v.46h3.2v-.49c0-2.81-1.63-4.68-4.9-4.68s-5.02,1.87-5.02,4.63c0,2.38.85,3.83,3.76,5.24,2.31,1.12,2.89,1.48,2.89,2.94,0,1.14-.7,1.8-1.77,1.8-1.21,0-1.75-.75-1.75-1.8v-.75h-3.2v.75c0,2.79,1.67,4.66,5,4.66Z"/>
  <path class="st1" d="M56.05,92.69c3.2,0,4.97-1.75,4.97-4.9v-1.72h-3.2v1.84c0,1.24-.61,1.92-1.7,1.92s-1.67-.68-1.67-1.92v-7.91c0-1.24.61-1.92,1.67-1.92s1.7.68,1.7,1.92v1.36h3.2v-1.24c0-3.15-1.77-4.9-4.97-4.9s-5,1.75-5,4.9v7.67c0,3.15,1.8,4.9,5,4.9Z"/>
  <path class="st1" d="M70.39,92.45h3.47l-3.52-16.99h-4.59l-3.52,16.99h3.23l.56-3.08h3.81l.56,3.08ZM66.55,86.45l1.36-7.6,1.38,7.6h-2.74Z"/>
  <path class="st1" d="M75.68,92.45h3.03v-12.08l4.17,12.08h3.42v-16.99h-3.03v9.83l-3.4-9.83h-4.2v16.99Z"/>
  <path class="st1" d="M39.08,124.78h4.41v-18.85l3.76,18.85h4.23l3.76-18.85v18.85h4.78v-25.33h-7.13l-3.33,17.66-3.37-17.66h-7.13v25.33Z"/>
  <path class="st1" d="M64.02,124.78h13.79v-4.41h-8.72v-6.22h6.95v-4.41h-6.95v-5.86h8.72v-4.41h-13.79v25.33Z"/>
  <path class="st1" d="M81.89,117.76h3.76l.65-8.97v-9.34h-5.07v9.34l.65,8.97ZM81.24,124.78h5.07v-4.31h-5.07v4.31Z"/>
  <path class="st1" d="M94.06,100l10.55-10.55v-18.12c0-2.4,1.95-4.35,4.35-4.35h57.34c2.4,0,4.35,1.95,4.35,4.35v57.34c0,2.4-1.95,4.35-4.35,4.35h-57.34c-2.4,0-4.35-1.95-4.35-4.35v-18.12l-10.55-10.55Z"/>
  <rect class="st0" x="25" y="62.63" width="150" height="74.74" rx="8.7" ry="8.7"/>
  <path class="st1" d="M44.08,92.69c3.32,0,5.12-1.87,5.12-4.73,0-2.43-.73-3.93-3.71-5.36-2.28-1.09-2.94-1.48-2.94-2.79,0-1.04.61-1.72,1.65-1.72,1.19,0,1.67.78,1.67,1.84v.46h3.2v-.49c0-2.81-1.63-4.68-4.9-4.68s-5.02,1.87-5.02,4.63c0,2.38.85,3.83,3.76,5.24,2.31,1.12,2.89,1.48,2.89,2.94,0,1.14-.7,1.8-1.77,1.8-1.21,0-1.75-.75-1.75-1.8v-.75h-3.2v.75c0,2.79,1.67,4.66,5,4.66Z"/>
  <path class="st1" d="M56.05,92.69c3.2,0,4.97-1.75,4.97-4.9v-1.72h-3.2v1.84c0,1.24-.61,1.92-1.7,1.92s-1.67-.68-1.67-1.92v-7.91c0-1.24.61-1.92,1.67-1.92s1.7.68,1.7,1.92v1.36h3.2v-1.24c0-3.15-1.77-4.9-4.97-4.9s-5,1.75-5,4.9v7.67c0,3.15,1.8,4.9,5,4.9Z"/>
  <path class="st1" d="M70.39,92.45h3.47l-3.52-16.99h-4.59l-3.52,16.99h3.23l.56-3.08h3.81l.56,3.08ZM66.55,86.45l1.36-7.6,1.38,7.6h-2.74Z"/>
  <path class="st1" d="M75.68,92.45h3.03v-12.08l4.17,12.08h3.42v-16.99h-3.03v9.83l-3.4-9.83h-4.2v16.99Z"/>
  <path class="st1" d="M39.08,124.78h4.41v-18.85l3.76,18.85h4.23l3.76-18.85v18.85h4.78v-25.33h-7.13l-3.33,17.66-3.37-17.66h-7.13v25.33Z"/>
  <path class="st1" d="M64.02,124.78h13.79v-4.41h-8.72v-6.22h6.95v-4.41h-6.95v-5.86h8.72v-4.41h-13.79v25.33Z"/>
  <path class="st1" d="M81.89,117.76h3.76l.65-8.97v-9.34h-5.07v9.34l.65,8.97ZM81.24,124.78h5.07v-4.31h-5.07v4.31Z"/>
  <path class="st1" d="M94.06,100l10.55-10.55v-18.12c0-2.4,1.95-4.35,4.35-4.35h57.34c2.4,0,4.35,1.95,4.35,4.35v57.34c0,2.4-1.95,4.35-4.35,4.35h-57.34c-2.4,0-4.35-1.95-4.35-4.35v-18.12l-10.55-10.55Z"/>
</svg>