<?xml version="1.0" encoding="UTF-8"?>
<svg id="Layer_1" xmlns="http://www.w3.org/2000/svg" version="1.1" viewBox="0 0 200 200">
  <!-- Generator: Adobe Illustrator 30.2.1, SVG Export Plug-In . SVG Version: 2.1.1 Build 1)  -->
  <defs>
    <style>
      .st0 {
        fill: #0d1b21;
      }

      .st1 {
        fill: #fff;
      }
    </style>
  </defs>
  <rect class="st0" x="25" y="62.63" width="74.74" height="74.74" rx="8.7" ry="8.7"/>
  <rect class="st1" x="29.35" y="66.98" width="66.04" height="66.04" rx="4.35" ry="4.35"/>
  <path class="st0" d="M126.67,62.63h39.64c4.78,0,8.7,3.91,8.7,8.7v57.34c0,4.78-3.91,8.7-8.7,8.7h-39.64c-3.41,0-6.51-1.99-7.92-5.1l-14.67-32.27,14.67-32.27c1.41-3.1,4.51-5.1,7.92-5.1Z"/>
  <path class="st1" d="M130.21,92.17c2.58,0,3.97-1.45,3.97-3.67,0-1.88-.56-3.05-2.88-4.16-1.77-.85-2.28-1.15-2.28-2.17,0-.81.47-1.34,1.28-1.34.92,0,1.3.6,1.3,1.43v.36h2.49v-.38c0-2.18-1.26-3.63-3.8-3.63s-3.9,1.45-3.9,3.6c0,1.85.66,2.98,2.92,4.07,1.79.87,2.24,1.15,2.24,2.28,0,.89-.55,1.39-1.37,1.39-.94,0-1.36-.58-1.36-1.39v-.58h-2.49v.58c0,2.17,1.3,3.62,3.88,3.62Z"/>
  <path class="st1" d="M139.49,92.17c2.49,0,3.86-1.36,3.86-3.8v-1.34h-2.49v1.43c0,.96-.47,1.49-1.32,1.49s-1.3-.53-1.3-1.49v-6.14c0-.96.47-1.49,1.3-1.49s1.32.53,1.32,1.49v1.05h2.49v-.96c0-2.45-1.37-3.8-3.86-3.8s-3.88,1.36-3.88,3.8v5.95c0,2.45,1.39,3.8,3.88,3.8Z"/>
  <path class="st1" d="M150.62,91.98h2.69l-2.73-13.18h-3.56l-2.73,13.18h2.5l.43-2.39h2.96l.43,2.39ZM147.65,87.33l1.05-5.89,1.07,5.89h-2.13Z"/>
  <path class="st1" d="M154.73,91.98h2.35v-9.38l3.24,9.38h2.66v-13.18h-2.35v7.63l-2.64-7.63h-3.26v13.18Z"/>
  <path class="st1" d="M126.33,121.39h4.18v-17.84l3.56,17.84h4.01l3.56-17.84v17.84h4.52v-23.98h-6.75l-3.15,16.71-3.19-16.71h-6.75v23.98Z"/>
  <path class="st1" d="M149.93,121.39h13.05v-4.18h-8.25v-5.89h6.58v-4.18h-6.58v-5.55h8.25v-4.18h-13.05v23.98Z"/>
</svg>