<?xml version="1.0" encoding="UTF-8"?>
<svg id="Layer_1" xmlns="http://www.w3.org/2000/svg" version="1.1" viewBox="0 0 200 200">
  <!-- Generator: Adobe Illustrator 30.2.1, SVG Export Plug-In . SVG Version: 2.1.1 Build 1)  -->
  <defs>
    <style>
      .st0 {
        fill: #0d1b21;
      }

      .st1 {
        fill: #fff;
      }
    </style>
  </defs>
  <rect class="st0" x="25" y="77.26" width="150" height="45.48" rx="8.7" ry="8.7"/>
  <rect class="st1" x="133.87" y="81.61" width="36.78" height="36.78" rx="4.35" ry="4.35"/>
  <path class="st1" d="M45.09,108.7c3.31,0,5.1-1.86,5.1-4.71,0-2.42-.72-3.91-3.7-5.34-2.27-1.09-2.92-1.47-2.92-2.78,0-1.04.6-1.71,1.64-1.71,1.18,0,1.67.77,1.67,1.84v.46h3.19v-.48c0-2.8-1.62-4.66-4.88-4.66s-5,1.86-5,4.61c0,2.37.85,3.82,3.74,5.22,2.29,1.11,2.87,1.47,2.87,2.92,0,1.14-.7,1.79-1.76,1.79-1.21,0-1.74-.75-1.74-1.79v-.75h-3.19v.75c0,2.78,1.67,4.64,4.98,4.64Z"/>
  <path class="st1" d="M57,108.7c3.19,0,4.95-1.74,4.95-4.88v-1.71h-3.19v1.84c0,1.23-.6,1.91-1.69,1.91s-1.67-.68-1.67-1.91v-7.87c0-1.23.6-1.91,1.67-1.91s1.69.68,1.69,1.91v1.35h3.19v-1.23c0-3.14-1.76-4.88-4.95-4.88s-4.98,1.74-4.98,4.88v7.63c0,3.14,1.79,4.88,4.98,4.88Z"/>
  <path class="st1" d="M71.27,108.45h3.45l-3.5-16.91h-4.57l-3.5,16.91h3.21l.56-3.07h3.79l.56,3.07ZM67.46,102.49l1.35-7.56,1.38,7.56h-2.73Z"/>
  <path class="st1" d="M76.54,108.45h3.02v-12.03l4.15,12.03h3.41v-16.91h-3.02v9.78l-3.38-9.78h-4.18v16.91Z"/>
  <path class="st1" d="M94.12,108.45h2.95v-12.58l2.51,12.58h2.83l2.51-12.58v12.58h3.19v-16.91h-4.76l-2.22,11.79-2.25-11.79h-4.76v16.91Z"/>
  <path class="st1" d="M110.77,108.45h9.2v-2.95h-5.82v-4.15h4.64v-2.95h-4.64v-3.91h5.82v-2.95h-9.2v16.91Z"/>
</svg>