<?xml version="1.0" encoding="UTF-8"?>
<svg id="Layer_1" xmlns="http://www.w3.org/2000/svg" version="1.1" viewBox="0 0 200 200">
  <!-- Generator: Adobe Illustrator 30.2.1, SVG Export Plug-In . SVG Version: 2.1.1 Build 1)  -->
  <defs>
    <style>
      .st0 {
        fill: #0d1b21;
      }

      .st1 {
        fill: #fff;
      }
    </style>
  </defs>
  <rect class="st0" x="35.4" y="61.55" width="129.2" height="129.23" rx="18.01" ry="18.01"/>
  <rect class="st1" x="44.41" y="70.59" width="111.19" height="111.19" rx="9.01" ry="9.01"/>
  <rect class="st0" x="35.4" y="9.22" width="129.2" height="43.33" rx="18.01" ry="18.01"/>
  <path class="st1" d="M58.01,41.33c3.98,0,6.12-2.23,6.12-5.66,0-2.9-.87-4.7-4.44-6.41-2.73-1.31-3.51-1.77-3.51-3.34,0-1.25.73-2.06,1.97-2.06,1.42,0,2,.93,2,2.21v.55h3.83v-.58c0-3.37-1.94-5.6-5.86-5.6s-6.01,2.23-6.01,5.54c0,2.84,1.02,4.58,4.5,6.27,2.76,1.33,3.45,1.77,3.45,3.51,0,1.36-.84,2.15-2.12,2.15-1.45,0-2.09-.9-2.09-2.15v-.9h-3.83v.9c0,3.34,2,5.57,5.98,5.57Z"/>
  <path class="st1" d="M72.32,41.33c3.83,0,5.95-2.09,5.95-5.86v-2.06h-3.83v2.21c0,1.48-.73,2.29-2.03,2.29s-2-.81-2-2.29v-9.46c0-1.48.73-2.29,2-2.29s2.03.81,2.03,2.29v1.62h3.83v-1.48c0-3.77-2.12-5.86-5.95-5.86s-5.98,2.09-5.98,5.86v9.17c0,3.77,2.15,5.86,5.98,5.86Z"/>
  <path class="st1" d="M89.47,41.04h4.15l-4.21-20.31h-5.48l-4.21,20.31h3.86l.67-3.69h4.56l.67,3.69ZM84.88,33.87l1.62-9.08,1.65,9.08h-3.28Z"/>
  <path class="st1" d="M95.79,41.04h3.63v-14.45l4.99,14.45h4.09v-20.31h-3.63v11.75l-4.06-11.75h-5.02v20.31Z"/>
  <path class="st1" d="M116.92,41.04h3.54v-15.12l3.02,15.12h3.39l3.02-15.12v15.12h3.83v-20.31h-5.72l-2.67,14.16-2.7-14.16h-5.72v20.31Z"/>
  <path class="st1" d="M136.91,41.04h11.06v-3.54h-6.99v-4.99h5.57v-3.54h-5.57v-4.7h6.99v-3.54h-11.06v20.31Z"/>
</svg>