<?xml version="1.0" encoding="UTF-8"?>
<svg id="Layer_1" xmlns="http://www.w3.org/2000/svg" version="1.1" viewBox="0 0 200 200">
  <!-- Generator: Adobe Illustrator 30.2.1, SVG Export Plug-In . SVG Version: 2.1.1 Build 1)  -->
  <defs>
    <style>
      .st0 {
        fill: #0d1b21;
      }

      .st1 {
        fill: #fff;
      }
    </style>
  </defs>
  <path class="st0" d="M142.23,8.69H57.77c-5.82,0-10.59,4.76-10.59,10.59v84.47c0,5.82,4.76,10.59,10.59,10.59h23.79l18.45,16.45,18.45-16.45h23.79c5.82,0,10.59-4.76,10.59-10.59V19.28c0-5.82-4.76-10.59-10.59-10.59Z"/>
  <rect class="st1" x="52.47" y="13.99" width="95.05" height="95.05" rx="5.29" ry="5.29"/>
  <rect class="st0" x="47.18" y="136.08" width="105.64" height="55.22" rx="10.59" ry="10.59"/>
  <path class="st1" d="M74.52,174c4.31,0,6.64-2.42,6.64-6.14,0-3.15-.94-5.1-4.81-6.95-2.96-1.42-3.81-1.92-3.81-3.62,0-1.35.79-2.23,2.14-2.23,1.54,0,2.17,1.01,2.17,2.39v.6h4.15v-.63c0-3.65-2.11-6.07-6.36-6.07s-6.51,2.42-6.51,6.01c0,3.08,1.1,4.97,4.88,6.8,2.99,1.45,3.74,1.92,3.74,3.81,0,1.48-.91,2.33-2.3,2.33-1.57,0-2.27-.98-2.27-2.33v-.98h-4.15v.98c0,3.62,2.17,6.04,6.48,6.04Z"/>
  <path class="st1" d="M90.03,174c4.15,0,6.45-2.27,6.45-6.36v-2.23h-4.15v2.39c0,1.6-.79,2.49-2.2,2.49s-2.17-.88-2.17-2.49v-10.26c0-1.6.79-2.49,2.17-2.49s2.2.88,2.2,2.49v1.76h4.15v-1.6c0-4.09-2.3-6.36-6.45-6.36s-6.48,2.27-6.48,6.36v9.94c0,4.09,2.33,6.36,6.48,6.36Z"/>
  <path class="st1" d="M108.63,173.69h4.5l-4.56-22.03h-5.95l-4.56,22.03h4.18l.72-4h4.94l.72,4ZM103.66,165.91l1.76-9.85,1.79,9.85h-3.56Z"/>
  <path class="st1" d="M115.49,173.69h3.93v-15.67l5.41,15.67h4.44v-22.03h-3.93v12.74l-4.4-12.74h-5.44v22.03Z"/>
</svg>