<?xml version="1.0" encoding="UTF-8"?>
<svg id="Layer_1" xmlns="http://www.w3.org/2000/svg" version="1.1" viewBox="0 0 200 200">
  <!-- Generator: Adobe Illustrator 30.2.1, SVG Export Plug-In . SVG Version: 2.1.1 Build 1)  -->
  <defs>
    <style>
      .st0 {
        fill: #0d1b21;
      }

      .st1 {
        fill: #fff;
      }
    </style>
  </defs>
  <rect class="st0" x="39.64" y="13.24" width="120.73" height="173.53" rx="10.98" ry="10.98"/>
  <path class="st1" d="M60.74,170.01c3.72,0,5.73-2.09,5.73-5.29,0-2.71-.81-4.4-4.15-6-2.55-1.22-3.28-1.66-3.28-3.12,0-1.17.68-1.93,1.85-1.93,1.33,0,1.87.87,1.87,2.06v.52h3.58v-.54c0-3.15-1.82-5.24-5.48-5.24s-5.62,2.09-5.62,5.18c0,2.66.95,4.29,4.21,5.86,2.58,1.25,3.23,1.66,3.23,3.28,0,1.28-.79,2.01-1.98,2.01-1.36,0-1.95-.84-1.95-2.01v-.84h-3.58v.84c0,3.12,1.87,5.21,5.59,5.21Z"/>
  <path class="st1" d="M74.12,170.01c3.58,0,5.56-1.95,5.56-5.48v-1.93h-3.58v2.06c0,1.38-.68,2.14-1.9,2.14s-1.87-.76-1.87-2.14v-8.85c0-1.38.68-2.14,1.87-2.14s1.9.76,1.9,2.14v1.52h3.58v-1.38c0-3.53-1.98-5.48-5.56-5.48s-5.59,1.95-5.59,5.48v8.57c0,3.53,2.01,5.48,5.59,5.48Z"/>
  <path class="st1" d="M90.15,169.73h3.88l-3.93-18.99h-5.13l-3.93,18.99h3.61l.62-3.45h4.26l.62,3.45ZM85.86,163.03l1.52-8.49,1.55,8.49h-3.07Z"/>
  <path class="st1" d="M96.07,169.73h3.39v-13.51l4.67,13.51h3.83v-18.99h-3.39v10.99l-3.8-10.99h-4.69v18.99Z"/>
  <path class="st1" d="M115.82,169.73h3.31v-14.14l2.82,14.14h3.17l2.82-14.14v14.14h3.58v-18.99h-5.35l-2.5,13.24-2.52-13.24h-5.35v18.99Z"/>
  <path class="st1" d="M134.51,169.73h10.34v-3.31h-6.54v-4.67h5.21v-3.31h-5.21v-4.4h6.54v-3.31h-10.34v18.99Z"/>
  <path class="st1" d="M149.2,18.72H50.42c-3.03,0-5.49,2.46-5.49,5.49v114.25c0,1.18,1.1,2.06,2.25,1.8l52.22-11.71c.27-.06.54-.06.81,0l52.22,11.71c1.16.26,2.25-.62,2.25-1.8V24.21c0-3.03-2.46-5.49-5.49-5.49Z"/>
</svg>