<?xml version="1.0" encoding="UTF-8"?>
<svg id="Layer_1" xmlns="http://www.w3.org/2000/svg" version="1.1" viewBox="0 0 200 200">
  <!-- Generator: Adobe Illustrator 30.2.1, SVG Export Plug-In . SVG Version: 2.1.1 Build 1)  -->
  <defs>
    <style>
      .st0 {
        fill: #0d1b21;
      }

      .st1 {
        fill: #fff;
      }
    </style>
  </defs>
  <path class="st0" d="M52.77,67.52h94.46c5.79,0,10.5,4.7,10.5,10.5v94.46c0,5.79-4.7,10.5-10.5,10.5H52.77c-5.79,0-10.5-4.7-10.5-10.5v-94.46c0-5.79,4.7-10.5,10.5-10.5Z"/>
  <rect class="st1" x="47.52" y="72.77" width="104.95" height="104.95" rx="5.25" ry="5.25"/>
  <path class="st0" d="M147.23,17.03H52.77c-5.77,0-10.5,4.72-10.5,10.5v14.22c0,5.8,4.7,10.5,10.5,10.5h16.86l30.36,10.03,30.36-10.03h16.86c5.8,0,10.5-4.7,10.5-10.5v-14.22c0-5.77-4.72-10.5-10.5-10.5Z"/>
  <path class="st1" d="M63.97,42.93c3.16,0,4.86-1.77,4.86-4.49,0-2.3-.69-3.73-3.52-5.09-2.16-1.04-2.79-1.4-2.79-2.65,0-.99.58-1.64,1.57-1.64,1.13,0,1.59.74,1.59,1.75v.44h3.04v-.46c0-2.67-1.54-4.44-4.65-4.44s-4.77,1.77-4.77,4.4c0,2.26.81,3.64,3.57,4.97,2.19,1.06,2.74,1.4,2.74,2.79,0,1.08-.67,1.7-1.68,1.7-1.15,0-1.66-.71-1.66-1.7v-.71h-3.04v.71c0,2.65,1.59,4.42,4.74,4.42Z"/>
  <path class="st1" d="M75.32,42.93c3.04,0,4.72-1.66,4.72-4.65v-1.64h-3.04v1.75c0,1.17-.58,1.82-1.61,1.82s-1.59-.64-1.59-1.82v-7.51c0-1.17.58-1.82,1.59-1.82s1.61.64,1.61,1.82v1.29h3.04v-1.17c0-2.99-1.68-4.65-4.72-4.65s-4.74,1.66-4.74,4.65v7.28c0,2.99,1.7,4.65,4.74,4.65Z"/>
  <path class="st1" d="M88.93,42.7h3.29l-3.34-16.12h-4.35l-3.34,16.12h3.06l.53-2.92h3.62l.53,2.92ZM85.3,37.01l1.29-7.21,1.31,7.21h-2.6Z"/>
  <path class="st1" d="M93.95,42.7h2.88v-11.47l3.96,11.47h3.25v-16.12h-2.88v9.33l-3.22-9.33h-3.98v16.12Z"/>
  <path class="st1" d="M110.72,42.7h2.81v-12l2.4,12h2.69l2.4-12v12h3.04v-16.12h-4.54l-2.12,11.24-2.14-11.24h-4.54v16.12Z"/>
  <path class="st1" d="M126.59,42.7h8.77v-2.81h-5.55v-3.96h4.42v-2.81h-4.42v-3.73h5.55v-2.81h-8.77v16.12Z"/>
  <path class="st1" d="M137.97,38.23h2.4l.41-5.71v-5.94h-3.22v5.94l.41,5.71ZM137.55,42.7h3.22v-2.74h-3.22v2.74Z"/>
</svg>