<?xml version="1.0" encoding="UTF-8"?>
<svg id="Layer_1" xmlns="http://www.w3.org/2000/svg" version="1.1" viewBox="0 0 200 200">
  <!-- Generator: Adobe Illustrator 30.2.1, SVG Export Plug-In . SVG Version: 2.1.1 Build 1)  -->
  <defs>
    <style>
      .st0 {
        fill: #0d1b21;
      }

      .st1 {
        fill: #fff;
      }
    </style>
  </defs>
  <rect class="st0" x="35.79" y="7.71" width="128.42" height="128.42" rx="11.67" ry="11.67"/>
  <rect class="st1" x="41.63" y="13.55" width="116.74" height="116.74" rx="5.84" ry="5.84"/>
  <rect class="st0" x="35.79" y="141.96" width="128.42" height="50.33" rx="11.67" ry="11.67"/>
  <path class="st1" d="M58.71,177.4c3.91,0,6.02-2.2,6.02-5.56,0-2.85-.86-4.62-4.37-6.31-2.68-1.28-3.45-1.74-3.45-3.28,0-1.23.71-2.03,1.94-2.03,1.4,0,1.97.91,1.97,2.17v.54h3.77v-.57c0-3.31-1.91-5.51-5.76-5.51s-5.91,2.2-5.91,5.45c0,2.8,1,4.51,4.42,6.16,2.71,1.31,3.4,1.74,3.4,3.45,0,1.34-.83,2.11-2.08,2.11-1.43,0-2.05-.88-2.05-2.11v-.88h-3.77v.88c0,3.28,1.97,5.48,5.88,5.48Z"/>
  <path class="st1" d="M72.78,177.4c3.77,0,5.85-2.05,5.85-5.76v-2.03h-3.77v2.17c0,1.46-.71,2.25-2,2.25s-1.97-.8-1.97-2.25v-9.3c0-1.46.71-2.25,1.97-2.25s2,.8,2,2.25v1.6h3.77v-1.46c0-3.71-2.08-5.76-5.85-5.76s-5.88,2.05-5.88,5.76v9.02c0,3.71,2.11,5.76,5.88,5.76Z"/>
  <path class="st1" d="M89.64,177.11h4.08l-4.14-19.98h-5.39l-4.14,19.98h3.8l.66-3.62h4.48l.66,3.62ZM85.13,170.07l1.6-8.93,1.63,8.93h-3.22Z"/>
  <path class="st1" d="M95.86,177.11h3.57v-14.21l4.91,14.21h4.02v-19.98h-3.57v11.56l-4-11.56h-4.94v19.98Z"/>
  <path class="st1" d="M116.64,177.11h3.48v-14.87l2.97,14.87h3.34l2.97-14.87v14.87h3.77v-19.98h-5.62l-2.63,13.93-2.65-13.93h-5.62v19.98Z"/>
  <path class="st1" d="M136.3,177.11h10.87v-3.48h-6.88v-4.91h5.48v-3.48h-5.48v-4.62h6.88v-3.48h-10.87v19.98Z"/>
</svg>